<?xml version="1.0" ?><svg style="enable-background:new 0 0 64 64;" version="1.1" viewBox="0 0 64 64" xml:space="preserve" xmlns="http://www.w3.org/2000/svg" xmlns:xlink="http://www.w3.org/1999/xlink"><style type="text/css">
	.st0{fill:#0072FF;}
</style><g id="GUIDES_64"/><g id="Layer_3"/><g id="Layer_2"><path class="st0" d="M32,4C16.6,4,4,16.6,4,32s12.6,28,28,28s28-12.6,28-28S47.5,4,32,4z M44.4,45.9c-0.5,0.8-1.5,1.1-2.3,0.5   c-6.3-3.9-14.2-4.7-23.5-2.5c-0.9,0.3-1.7-0.4-2-1.2c-0.3-0.9,0.4-1.7,1.2-2c10.1-2.3,19-1.3,25.9,2.9C44.7,44,44.8,45.1,44.4,45.9   z M48.2,38.3c-0.7,1-2,1.4-2.9,0.7c-7.6-4.6-19-6-27.9-3.2c-1.1,0.3-2.4-0.3-2.7-1.4c-0.3-1.1,0.3-2.4,1.4-2.7   c10.2-3.1,22.8-1.5,31.5,3.8C48.5,35.9,48.9,37.3,48.2,38.3z M52.1,29.8c-0.7,1-2.4,1.4-3.6,0.7c-9-5.3-23.9-5.9-32.5-3.2   c-1.4,0.4-2.8-0.4-3.2-1.7c-0.4-1.4,0.4-2.8,1.7-3.2c9.9-2.9,26.3-2.4,36.7,3.8C52.4,26.8,52.8,28.5,52.1,29.8z"/></g></svg>